<?xml version="1.0" encoding="UTF-8" standalone="no"?>
<svg
   viewBox="0 0 500 500"
   version="1.1"
   id="svg3"
   sodipodi:docname="logo.svg"
   inkscape:version="1.3.2 (091e20e, 2023-11-25)"
   xmlns:inkscape="http://www.inkscape.org/namespaces/inkscape"
   xmlns:sodipodi="http://sodipodi.sourceforge.net/DTD/sodipodi-0.dtd"
   xmlns="http://www.w3.org/2000/svg"
   xmlns:svg="http://www.w3.org/2000/svg">
  <defs
     id="defs3" />
  <sodipodi:namedview
     id="namedview3"
     pagecolor="#ffffff"
     bordercolor="#000000"
     borderopacity="0.25"
     inkscape:showpageshadow="2"
     inkscape:pageopacity="0.0"
     inkscape:pagecheckerboard="0"
     inkscape:deskcolor="#d1d1d1"
     inkscape:zoom="0.472"
     inkscape:cx="248.94068"
     inkscape:cy="248.94068"
     inkscape:window-width="1440"
     inkscape:window-height="900"
     inkscape:window-x="0"
     inkscape:window-y="0"
     inkscape:window-maximized="0"
     inkscape:current-layer="svg3" />
  <path
     fill="#99E1E9"
     opacity="1.000000"
     stroke="none"
     d="M 378.222 388.212 C 385.79 412.796 367.648 432.626 340.943 430.277 C 329.783 429.295 320.38 424.204 311.516 417.702 C 309.972 416.569 307.212 415.923 305.432 416.454 C 263.318 429.023 221.875 426.971 181.238 410.557 C 165.899 404.362 151.851 395.696 138.794 385.445 C 136.268 383.462 133.141 381.898 130.043 381.042 C 100.659 372.923 79.376 355.68 68.999 326.516 C 62.067 307.036 62.592 287.325 68.706 267.628 C 69.812 264.063 70.154 260.188 70.359 256.43 C 71.134 242.174 71.985 227.912 72.212 213.643 C 72.294 208.439 70.906 203.169 69.855 197.997 C 67.179 184.827 66.06 171.597 68.514 158.308 C 73.637 130.566 89.582 116.27 117.81 114.278 C 122.241 113.965 125.54 112.609 128.735 109.59 C 152.951 86.708 181.676 72.169 214.114 65.377 C 245.853 58.731 277.361 60.474 308.236 70.791 C 313.44 72.53 318.479 74.778 323.714 76.403 C 325.336 76.907 327.577 76.601 329.154 75.859 C 335.708 72.773 342.457 71.451 349.523 73.243 C 360.778 76.097 367.377 86.602 365.951 98.425 C 365.742 100.154 366.616 102.717 367.907 103.818 C 389.574 122.295 406.206 144.538 417.712 170.522 C 425.861 188.924 430.715 208.287 432.22 228.365 C 434.794 262.69 428.471 295.323 412.711 326.011 C 403.424 344.095 391.391 360.152 376.647 374.163 C 375.572 375.185 374.491 376.202 373.518 377.122 C 375.105 380.838 376.599 384.335 378.222 388.212 M 119.477 117.407 C 94.229 118.428 78.124 130.659 72.558 153.53 C 68.686 169.446 69.949 185.315 74.153 202.225 C 74.877 200.124 75.2 199.091 75.586 198.08 C 80.544 185.07 84.692 171.671 90.686 159.156 C 98.014 143.853 107.769 129.93 119.869 117.776 C 119.778 117.666 119.697 117.544 119.587 117.459 C 119.567 117.443 119.431 117.575 119.348 117.638 C 119.651 117.807 119.954 117.976 119.477 117.407 M 411.884 307.688 C 413.177 304.085 414.556 300.51 415.748 296.874 C 423.705 272.606 426.237 247.73 423.194 222.417 C 419.964 195.55 410.754 170.736 395.893 148.099 C 377.992 120.834 354.099 100.417 324.628 86.547 C 323.441 85.988 320.819 86.437 320.048 87.382 C 316.727 91.452 313.848 95.882 310.795 100.198 C 311.762 101.223 312.199 101.697 312.648 102.16 C 317.384 107.045 318.203 112.978 314.832 117.987 C 311.769 122.537 305.834 124.364 300.674 122.347 C 295.494 120.321 292.576 115.225 293.324 109.513 C 294.088 103.691 298.397 100.046 305.141 99.42 C 306.216 99.32 307.767 99.241 308.237 98.559 C 311.667 93.583 314.878 88.456 318.17 83.359 C 288.187 71.232 257.391 67.163 225.483 71.957 C 199.357 75.883 175.169 85.092 153.623 100.204 C 115.929 126.641 91.951 162.529 81.728 207.603 C 79.468 217.571 80.455 226.46 86.391 235.052 C 87.052 234.469 87.594 234.103 87.998 233.621 C 99.936 219.369 114.955 209.482 132.139 202.792 C 135.037 201.664 134.929 199.657 135.294 197.382 C 136.313 191.045 141.766 187.099 148.337 187.776 C 154.576 188.418 158.996 193.799 158.631 200.306 C 158.287 206.451 153.337 211.758 147.215 211.067 C 143.139 210.607 139.3 208.05 133.52 205.68 C 117.632 211.231 102.421 221.811 89.849 236.376 C 87.744 238.815 88.786 240.48 89.897 242.571 C 103.891 268.916 122.288 291.705 145.084 310.936 C 148.177 313.546 151.427 315.968 155.554 319.227 C 155.357 316.422 155.282 315.131 155.173 313.842 C 154.298 303.415 153.263 292.998 152.643 282.557 C 152.483 279.86 152.245 278.214 149.571 276.685 C 144.641 273.864 142.94 267.878 144.832 262.715 C 146.685 257.658 152.251 254.282 157.527 255.016 C 162.805 255.749 167.044 260.027 167.663 265.241 C 168.368 271.191 165.497 276.295 159.625 277.954 C 156.238 278.911 155.41 280.793 155.694 283.653 C 156.827 295.048 158.075 306.43 159.268 317.819 C 159.644 321.406 161.625 323.677 164.608 325.674 C 193.055 344.718 224.282 356.151 258.208 360.434 C 260.78 360.758 261.916 360.17 263.186 357.879 C 266.431 352.026 272.918 350.108 278.608 352.86 C 284.482 355.7 286.678 362.042 284.354 368.533 C 283.76 370.191 283.423 372.624 284.209 373.983 C 290.098 384.168 296.266 394.193 302.423 404.22 C 304.004 406.795 306.102 407.613 309.133 406.094 C 321.005 400.146 333.579 395.35 344.767 388.332 C 375.56 369.013 397.553 341.931 411.884 307.688 M 173.509 359.454 C 168.852 349.732 164.331 339.94 159.459 330.327 C 157.888 327.225 155.917 323.909 153.238 321.85 C 133.943 307.023 117.009 289.944 103.142 269.951 C 96.954 261.029 91.391 251.675 85.348 242.209 C 82.308 247.308 77.945 251.409 78.716 258.289 C 81.396 282.217 87.264 305.332 99.448 326.086 C 132.944 383.145 182.722 413.817 249.33 415.97 C 267.062 416.544 284.369 413.82 300.678 408.758 C 293.599 397.147 286.558 385.598 279.47 373.972 C 270.212 377.294 265.736 375.101 260.96 364.4 C 225.88 360.388 193.546 348.268 162.867 329.967 C 167.284 340.301 172.372 350.08 177.7 359.726 C 178.106 360.461 180.272 360.63 181.516 360.426 C 187.497 359.449 192.862 361.99 195.165 367.13 C 197.395 372.11 195.816 378.263 191.483 381.47 C 186.939 384.834 180.977 384.681 176.702 381.091 C 172.238 377.343 170.979 371.485 174.093 366.237 C 175.516 363.839 175.728 362.09 173.509 359.454 M 372.873 413.644 C 379.449 401.959 377.177 390.892 371.214 380.334 C 361.65 386.832 352.745 393.554 343.195 399.182 C 333.523 404.882 323.213 409.501 312.079 415.154 C 318.922 418.614 325.213 422.71 332.096 425.094 C 348.279 430.697 363.373 426.29 372.873 413.644 M 89.364 354.489 C 100.122 365.639 113.165 372.785 129.349 377.437 C 97.766 347.729 78.88 312.711 71.961 270.84 C 63.272 291.398 65.483 329.341 89.364 354.489 M 330.833 79.941 C 341.311 86.092 351.79 92.242 362.197 98.351 C 364.138 90.486 361.098 82.933 353.961 78.774 C 346.042 74.161 338.176 74.868 330.833 79.941 M 82.714 240.292 C 84.942 235.643 80.871 233.369 78.652 230.288 C 78.652 235.222 78.652 240.156 78.652 246.075 C 80.253 243.812 81.274 242.369 82.714 240.292 Z"
     id="path1"
     style="fill:#124076;fill-opacity:1" />
  <path
     fill="#141516"
     opacity="1.000000"
     stroke="none"
     d="M 120.208 118.134 C 119.954 117.976 119.651 117.807 119.348 117.638 C 119.431 117.575 119.567 117.443 119.587 117.459 C 119.697 117.544 119.778 117.666 120.057 117.965 C 120.245 118.154 120.16 118.124 120.208 118.134 Z"
     id="path2"
     style="fill:#124076;fill-opacity:1" />
  <path
     fill="#98E0E9"
     opacity="1.000000"
     stroke="none"
     d="M 270.496 131.891 C 296.299 141.958 318.094 157.078 336.264 178.497 C 342.198 172.971 347.977 167.591 353.631 162.325 C 349.81 153.83 350.506 148.215 355.583 144.333 C 360.028 140.934 366.098 141.045 370.357 144.604 C 374.777 148.298 375.969 154.56 373.199 159.532 C 370.061 165.166 364.738 166.625 356.217 164.189 C 350.444 169.699 344.67 175.209 339.11 180.514 C 344.73 189.858 350.817 198.956 355.862 208.598 C 364.354 224.83 369.187 242.26 370.574 260.567 C 370.806 263.623 371.652 265.498 374.847 266.804 C 380.086 268.944 382.518 274.78 381.203 280.074 C 379.918 285.243 375.284 288.942 369.948 289.058 C 364.202 289.182 359.688 285.788 358.176 280.208 C 356.727 274.856 358.966 269.156 364.236 266.868 C 367.338 265.521 367.863 263.935 367.581 260.886 C 364.898 231.893 354.227 206.172 336.09 183.073 C 335.397 183.487 334.697 183.804 334.114 184.268 C 307.979 205.057 278.256 218.192 245.837 225.485 C 242.931 226.139 241.392 227.133 240.563 230.204 C 239.061 235.765 233.778 239.119 228.46 238.609 C 222.752 238.063 218.161 233.593 217.526 227.965 C 216.938 222.745 220.044 217.699 225.078 215.698 C 230.457 213.559 236.135 215.25 239.362 220.513 C 240.771 222.81 242.095 223.285 244.531 222.713 C 276.016 215.322 305.141 202.864 330.746 182.79 C 331.659 182.074 332.538 181.316 333.843 180.24 C 304.899 147.141 268.762 128.771 225.348 124.628 C 220.084 133.578 215.58 136.23 209.328 134.278 C 203.94 132.596 200.355 127.536 200.761 122.187 C 201.178 116.701 205.283 112.157 210.737 111.147 C 216.832 110.018 221.411 113.35 225.054 121.605 C 240.558 122.761 255.547 126.349 270.496 131.891 Z"
     id="path3"
     style="fill:#124076;fill-opacity:1" />
</svg>
